<?xml version="1.0" encoding="UTF-8" standalone="no"?>
<!-- Created with Inkscape (http://www.inkscape.org/) -->

<svg
   xmlns:dc="http://purl.org/dc/elements/1.1/"
   xmlns:cc="http://creativecommons.org/ns#"
   xmlns:rdf="http://www.w3.org/1999/02/22-rdf-syntax-ns#"
   xmlns:svg="http://www.w3.org/2000/svg"
   xmlns="http://www.w3.org/2000/svg"
   xmlns:sodipodi="http://sodipodi.sourceforge.net/DTD/sodipodi-0.dtd"
   xmlns:inkscape="http://www.inkscape.org/namespaces/inkscape"
   width="210mm"
   height="297mm"
   viewBox="0 0 210 297"
   version="1.1"
   id="svg8"
   inkscape:version="0.92.2 5c3e80d, 2017-08-06"
   sodipodi:docname="linkedin.svg">
  <sodipodi:namedview
     id="base"
     pagecolor="#ffffff"
     bordercolor="#666666"
     borderopacity="1.0"
     inkscape:pageopacity="0.0"
     inkscape:pageshadow="2"
     inkscape:zoom="0.08"
     inkscape:cx="1983.9406"
     inkscape:cy="55.358088"
     inkscape:document-units="mm"
     inkscape:current-layer="g4547"
     showgrid="false"
     inkscape:window-width="1440"
     inkscape:window-height="851"
     inkscape:window-x="0"
     inkscape:window-y="1"
     inkscape:window-maximized="1" />
  <defs
     id="defs2" />
  <g
     id="layer1"
     inkscape:groupmode="layer"
     inkscape:label="Layer 1" />
  <g
     inkscape:label="Layer 1"
     inkscape:groupmode="layer"
     id="g4547">
    <g
       aria-label="in"
       style="font-style:normal;font-variant:normal;font-weight:bold;font-stretch:normal;font-size:1182.98583984px;line-height:1.25;font-family:'Avenir Next';-inkscape-font-specification:'Avenir Next, Bold';font-variant-ligatures:normal;font-variant-caps:normal;font-variant-numeric:normal;font-feature-settings:normal;text-align:start;letter-spacing:0px;word-spacing:0px;writing-mode:lr-tb;text-anchor:start;fill:#646464;fill-opacity:0.93333333;stroke:none;stroke-width:29.574646"
       id="text4648">
      <path
         d="m 260.68692,136.26457 q 0,22.47673 -9.46389,42.58749 -8.2809,18.92777 -23.65972,33.1236 -14.19583,14.19583 -35.48957,22.47674 -20.11076,8.2809 -42.58749,8.2809 -47.31944,0 -79.260054,-30.75764 -31.940618,-31.94061 -31.940618,-75.71109 0,-21.29374 8.280901,-40.221518 8.280901,-20.11076 23.659717,-34.30659 15.378816,-14.19583 35.489574,-22.476731 20.11076,-9.463886 43.77048,-9.463886 22.47673,0 42.58749,8.280901 21.29374,8.2809 35.48957,22.476731 15.37882,14.19583 23.65972,34.306589 9.46389,18.927774 9.46389,41.404504 z M 52.481408,913.48627 V 324.35932 H 246.49109 v 589.12695 z"
         style="font-style:normal;font-variant:normal;font-weight:bold;font-stretch:normal;font-size:1182.98583984px;font-family:'Avenir Next';-inkscape-font-specification:'Avenir Next, Bold';font-variant-ligatures:normal;font-variant-caps:normal;font-variant-numeric:normal;font-feature-settings:normal;text-align:start;writing-mode:lr-tb;text-anchor:start;fill:#646464;fill-opacity:0.93333333;stroke-width:29.574646"
         id="path4650" />
      <path
         d="M 788.15072,913.48627 V 591.71412 q 0,-24.8427 -4.73194,-47.31943 -3.54896,-22.47674 -13.01285,-39.03854 -9.46388,-17.74479 -27.20867,-27.20867 -16.5618,-10.64687 -42.58749,-10.64687 -26.02569,0 -46.13645,10.64687 -18.92777,9.46388 -31.94062,27.20867 -13.01284,17.74479 -20.11076,41.40451 -5.91493,22.47673 -5.91493,47.31943 V 913.48627 H 401.31435 V 324.35932 H 589.4091 v 81.62602 h 2.36597 q 10.64687,-18.92777 27.20867,-36.67256 17.74479,-18.92777 40.22152,-31.94062 23.65972,-13.01284 50.86839,-21.29374 27.20868,-8.2809 57.96631,-8.2809 59.14929,0 100.5538,21.29374 41.4045,21.29375 66.2472,55.60034 26.02569,33.1236 36.67256,76.89408 11.82986,43.77047 11.82986,87.54095 v 364.35964 z"
         style="font-style:normal;font-variant:normal;font-weight:bold;font-stretch:normal;font-size:1182.98583984px;font-family:'Avenir Next';-inkscape-font-specification:'Avenir Next, Bold';font-variant-ligatures:normal;font-variant-caps:normal;font-variant-numeric:normal;font-feature-settings:normal;text-align:start;writing-mode:lr-tb;text-anchor:start;fill:#646464;fill-opacity:0.93333333;stroke-width:29.574646"
         id="path4652" />
    </g>
  </g>
  <g
     id="g4594"
     inkscape:groupmode="layer"
     inkscape:label="Layer 1" />
  <g
     inkscape:groupmode="layer"
     inkscape:label="Web Slicer"
     id="webslicer-layer" />
  <metadata
     id="metadata4571">
    <rdf:RDF>
      <cc:Work
         rdf:about="">
        <dc:title></dc:title>
        <dc:format>image/svg+xml</dc:format>
        <dc:type
           rdf:resource="http://purl.org/dc/dcmitype/StillImage" />
      </cc:Work>
    </rdf:RDF>
  </metadata>
</svg>
