<?xml version="1.0" encoding="UTF-8" standalone="no"?>
<svg
   xmlns:dc="http://purl.org/dc/elements/1.1/"
   xmlns:cc="http://creativecommons.org/ns#"
   xmlns:rdf="http://www.w3.org/1999/02/22-rdf-syntax-ns#"
   xmlns:svg="http://www.w3.org/2000/svg"
   xmlns="http://www.w3.org/2000/svg"
   xmlns:sodipodi="http://sodipodi.sourceforge.net/DTD/sodipodi-0.dtd"
   xmlns:inkscape="http://www.inkscape.org/namespaces/inkscape"
   height="1755"
   width="1755"
   viewBox="0 0 1755 1755"
   version="1.1"
   id="svg74"
   sodipodi:docname="google-scholar.svg"
   inkscape:version="1.0.1 (c497b03c, 2020-09-10)">
  <metadata
     id="metadata80">
    <rdf:RDF>
      <cc:Work
         rdf:about="">
        <dc:format>image/svg+xml</dc:format>
        <dc:type
           rdf:resource="http://purl.org/dc/dcmitype/StillImage" />
      </cc:Work>
    </rdf:RDF>
  </metadata>
  <defs
     id="defs78" />
  <sodipodi:namedview
     pagecolor="#ffffff"
     bordercolor="#666666"
     borderopacity="1"
     objecttolerance="10"
     gridtolerance="10"
     guidetolerance="10"
     inkscape:pageopacity="0"
     inkscape:pageshadow="2"
     inkscape:window-width="1440"
     inkscape:window-height="855"
     id="namedview76"
     showgrid="false"
     inkscape:zoom="0.36866097"
     inkscape:cx="485.54096"
     inkscape:cy="877.5"
     inkscape:window-x="0"
     inkscape:window-y="23"
     inkscape:window-maximized="0"
     inkscape:current-layer="svg74"
     inkscape:document-rotation="0" />
  <path
     id="rect56"
     style="fill:#000000;stroke-width:1.24167"
     d="M 571.76562 485.54102 C 523.67809 485.54102 484.96484 524.25425 484.96484 572.3418 L 484.96484 1207.0703 C 484.96484 1255.1579 523.67809 1293.8711 571.76562 1293.8711 L 1206.4961 1293.8711 C 1254.5837 1293.8711 1293.2969 1255.1579 1293.2969 1207.0703 L 1293.2969 572.3418 C 1293.2969 524.25425 1254.5837 485.54102 1206.4961 485.54102 L 571.76562 485.54102 z M 806.10938 580.91016 L 1154.5664 580.91016 L 1122.3652 606.04688 L 1122.3652 650.41406 C 1134.3221 651.95039 1133.0586 659.13682 1133.0586 667.73047 L 1133.0566 667.73242 L 1133.0566 877.34766 C 1133.0566 887.0521 1125.1158 894.99609 1115.4082 894.99609 L 1108.9102 894.99609 C 1099.2015 894.99609 1091.2598 887.05532 1091.2598 877.34766 L 1091.2598 667.73242 C 1091.2598 659.11529 1090.0101 651.92014 1102.0527 650.40625 L 1102.0527 622.51758 L 1009.3438 698.55273 C 1010.4149 700.53916 1011.4313 701.81088 1012.3965 703.47656 C 1020.5444 717.89694 1024.6934 735.83081 1024.6934 757.75 C 1024.6934 774.55133 1021.8938 789.64281 1016.2168 802.97266 C 1010.5664 816.29826 1003.6933 827.18342 995.67383 835.56641 C 987.65424 843.98044 979.61029 851.67136 971.56836 858.5918 C 963.52543 865.5283 956.65161 872.76018 951.02148 880.26758 C 945.34776 887.75145 942.52539 895.49024 942.52539 903.50977 C 942.52539 911.54102 946.19056 919.69925 953.49805 927.92188 C 960.77886 936.16805 969.73432 944.16027 980.32617 952.05469 C 990.93725 959.8946 1001.5272 968.59805 1012.1191 978.06836 C 1022.7345 987.52691 1031.6411 999.69333 1038.9219 1014.4688 C 1046.2571 1029.2995 1049.916 1045.6278 1049.916 1063.5742 C 1049.916 1087.249 1043.8798 1108.6277 1031.8457 1127.6582 C 1019.7753 1146.6063 1004.0489 1161.7266 984.72656 1172.8145 C 965.35302 1183.9774 944.63469 1192.3788 922.53906 1198.0527 C 900.39744 1203.6753 878.42716 1206.502 856.48438 1206.502 C 842.63491 1206.502 828.66003 1205.4359 814.60742 1203.2422 C 800.50461 1201.0526 786.37828 1197.1848 772.15039 1191.7344 C 757.89463 1186.2488 745.2697 1179.5119 734.32617 1171.4219 C 723.35478 1163.4143 714.52289 1153.0799 707.75 1140.4941 C 700.97821 1127.9042 697.61523 1113.7552 697.61523 1098.0371 C 697.61523 1079.3904 702.80855 1062.0935 713.2207 1045.9688 C 723.63295 1029.962 737.42653 1016.5924 754.58398 1006.0039 C 784.51839 987.38074 831.4846 975.87353 895.4043 971.52539 C 880.79255 953.25829 873.46094 936.06585 873.46094 919.97656 C 873.46094 910.82378 875.85454 901.01372 880.58984 890.42188 C 872.95413 891.48887 865.09116 892.0918 857.06836 892.0918 C 822.7312 892.0918 793.73389 880.92954 770.1875 858.45117 C 746.64221 836.01237 734.88086 807.92348 734.88086 773.96484 C 734.88086 770.41428 734.98263 767.28729 735.24023 763.82227 L 595.69531 763.82227 L 806.10938 580.91016 z M 867.45898 655.85352 C 845.56751 655.85352 828.76485 663.73253 817.05469 679.45508 C 805.34454 695.12954 799.48828 714.11918 799.48828 736.42969 C 799.48828 755.43235 802.69359 774.77941 809.10938 794.50586 C 815.50171 814.22373 825.96192 831.8247 840.625 847.33984 C 855.23675 862.8935 872.24145 870.65625 891.56055 870.65625 C 913.09703 870.65625 929.92018 863.43762 941.98633 849.00977 C 954.00117 834.60115 960.03125 816.41332 960.03125 794.50586 C 960.03125 775.84748 956.8481 756.30845 950.45898 735.88281 C 944.10094 715.42936 933.48483 696.97524 918.66992 680.54492 C 903.90633 664.06006 886.80153 655.85352 867.45898 655.85352 z M 903.65625 992.26953 C 887.94974 992.26953 872.49802 993.65748 857.32812 996.42969 C 842.15721 999.12713 827.19038 1003.6818 812.42578 1010.1094 C 797.60664 1016.4986 785.64744 1025.8943 776.5332 1038.3164 C 767.36865 1050.7227 762.8125 1065.3335 762.8125 1082.1465 C 762.8125 1098.1696 766.83266 1112.4642 774.87891 1124.9141 C 782.89839 1137.2849 793.48557 1146.9695 806.64648 1153.9062 C 819.80748 1160.8544 833.60549 1166.1028 848.00977 1169.5508 C 862.44192 1172.9762 877.12991 1174.7559 892.09766 1174.7559 C 921.69962 1174.7559 947.18605 1168.0896 968.56641 1154.7598 C 989.89873 1141.4341 1000.5879 1120.856 1000.5879 1093.0801 C 1000.5879 1087.2385 999.77488 1081.4881 998.16797 1075.873 C 996.49052 1070.1962 994.83131 1065.3355 993.20508 1061.3008 C 991.57472 1057.3396 988.47094 1052.5696 983.88867 1047.0723 C 979.33316 1041.5588 975.84567 1037.4856 973.5 1034.7754 C 971.10733 1031.9753 966.62863 1027.9799 960.0332 1022.6973 C 953.49224 1017.3912 949.31799 1014.0844 947.46094 1012.8613 C 945.62733 1011.5752 940.86856 1008.0977 933.20508 1002.459 C 925.54582 996.77455 921.34618 993.7603 920.60742 993.4043 C 916.58752 992.67722 910.93698 992.26953 903.65625 992.26953 z " />
</svg>
