<?xml version="1.0" encoding="UTF-8" standalone="no"?>
<!-- Created with Inkscape (http://www.inkscape.org/) -->

<svg
   xmlns:dc="http://purl.org/dc/elements/1.1/"
   xmlns:cc="http://creativecommons.org/ns#"
   xmlns:rdf="http://www.w3.org/1999/02/22-rdf-syntax-ns#"
   xmlns:svg="http://www.w3.org/2000/svg"
   xmlns="http://www.w3.org/2000/svg"
   xmlns:sodipodi="http://sodipodi.sourceforge.net/DTD/sodipodi-0.dtd"
   xmlns:inkscape="http://www.inkscape.org/namespaces/inkscape"
   width="210mm"
   height="297mm"
   viewBox="0 0 210 297"
   version="1.1"
   id="svg8"
   inkscape:version="0.92.2 5c3e80d, 2017-08-06"
   sodipodi:docname="google-scholar.svg">
  <sodipodi:namedview
     id="base"
     pagecolor="#ffffff"
     bordercolor="#666666"
     borderopacity="1.0"
     inkscape:pageopacity="0.0"
     inkscape:pageshadow="2"
     inkscape:zoom="0.08"
     inkscape:cx="1365.1906"
     inkscape:cy="55.358088"
     inkscape:document-units="mm"
     inkscape:current-layer="g4547"
     showgrid="false"
     inkscape:window-width="1440"
     inkscape:window-height="851"
     inkscape:window-x="0"
     inkscape:window-y="1"
     inkscape:window-maximized="1" />
  <defs
     id="defs2" />
  <g
     id="layer1"
     inkscape:groupmode="layer"
     inkscape:label="Layer 1" />
  <g
     inkscape:label="Layer 1"
     inkscape:groupmode="layer"
     id="g4547">
    <g
       aria-label="in"
       style="font-style:normal;font-variant:normal;font-weight:bold;font-stretch:normal;font-size:1182.98583984px;line-height:1.25;font-family:'Avenir Next';-inkscape-font-specification:'Avenir Next, Bold';font-variant-ligatures:normal;font-variant-caps:normal;font-variant-numeric:normal;font-feature-settings:normal;text-align:start;letter-spacing:0px;word-spacing:0px;writing-mode:lr-tb;text-anchor:start;fill:#646464;fill-opacity:0.93333333;stroke:none;stroke-width:29.574646"
       id="text4648">
      <path
         d="M 241.88687,2.1208328 0.25086544,305.31953 H 196.06905 c 1.26344,54.73718 20.88266,100.16039 58.86184,136.26879 39.28606,37.3509 87.5712,56.02672 144.85505,56.02672 8.51486,0 21.67482,-0.77421 39.47955,-2.32259 -8.12818,18.96568 -12.19227,35.41471 -12.19227,49.34837 0,15.86888 2.99954,29.99678 8.99885,42.38268 5.9993,12.386 15.19206,26.70694 27.57795,42.96321 -105.66595,6.96717 -183.85136,26.32019 -234.55544,58.05862 -28.64161,17.80465 -51.57408,40.05997 -68.79831,66.76644 -17.22427,26.70642 -25.83629,55.7355 -25.83629,87.08715 0,27.48056 7.16028,52.83269 21.4814,76.05629 22.06253,37.15734 55.2523,63.76703 99.56964,79.82963 44.31739,16.06246 92.02188,24.09426 143.11342,24.09426 61.54233,0 119.21368,-11.1284 173.01398,-33.38386 53.80019,-22.25554 94.63434,-56.99346 122.5024,-104.2141 C 712.7197,852.156 722.00904,818.67552 722.00904,783.84021 721.60883,732.85909 699.2766,679.512 658.72551,641.01666 c -17.41723,-15.48287 -34.93117,-29.70679 -52.5422,-42.67253 -17.61095,-12.96578 -32.60966,-26.1257 -44.99555,-39.47953 -12.3851,-13.353 -18.5778,-26.99574 -18.57865,-40.92843 v -0.002 -0.002 c 6.8e-4,-13.15848 4.74206,-25.93007 14.22416,-38.31515 9.48283,-12.38592 20.99751,-24.28798 34.54449,-35.706 13.54694,-11.41804 26.99674,-23.99726 40.34996,-37.7379 13.35319,-13.74064 24.77174,-31.73882 34.25462,-53.99439 5.88807,-13.81892 9.94688,-28.72079 12.179,-44.7036 l 148.59213,-193.68317 0,221.50154 c -20.08807,8.11666 -34.45454,30.53712 -34.45454,57.06509 l 0,227.49606 c 0,33.41599 22.79406,60.31779 51.10745,60.31779 28.31354,0 51.10738,-26.9018 51.10738,-60.31779 l 0,-227.49606 c 0,-25.24813 -13.01436,-46.7737 -31.58863,-55.78996 l 0,-268.504938 -2.88449,2.339595 L 912.4261,2.1208328 Z M 417.20271,103.39649 c 24.77118,0 47.41373,7.93489 67.9279,23.80439 20.51406,15.86958 36.86719,35.89935 49.05935,60.09013 12.19229,24.1907 21.57836,49.25265 28.15808,75.18554 6.57973,25.9329 9.86968,50.12426 9.86968,72.57349 0,39.47978 -10.2573,70.25064 -30.77137,92.31244 -10.0633,10.45012 -22.83588,18.86825 -38.31803,25.25494 -15.48204,6.38668 -30.57709,9.57982 -45.28498,9.57982 -20.12661,0 -38.80252,-5.03098 -56.02673,-15.095 -17.22423,-10.064 -31.73848,-23.03054 -43.54335,-38.8994 -11.80479,-15.8689 -21.86766,-33.76971 -30.18955,-53.70329 -8.32183,-19.93365 -14.41805,-39.86689 -18.28843,-59.79985 -3.87036,-19.93297 -5.80545,-38.80215 -5.80545,-56.60688 0,-39.09302 9.09538,-70.05734 27.28686,-92.89337 9.67651,-12.77276 22.35324,-22.93259 38.02899,-30.48027 15.67587,-7.54762 31.64158,-11.32146 47.89786,-11.32146 z m 60.37708,562.00303 8e-4,8.1e-4 c 12.386,0 21.67566,0.38756 27.86865,1.1615 1.16096,0.77423 8.22424,5.80584 21.19071,15.09501 12.9664,9.28906 20.99817,15.09451 24.09428,17.41716 3.09613,2.32263 10.15942,7.93495 21.19071,16.83662 11.03125,8.90167 18.48229,15.57811 22.35262,20.02965 3.87031,4.4515 9.57923,11.22528 17.12691,20.32073 7.54767,9.09536 12.77285,17.12685 15.67595,24.09386 2.9031,6.96723 5.7098,15.09547 8.41915,24.38462 2.70937,9.28913 4.0638,18.7718 4.0638,28.44833 0,23.99763 -5.32159,45.09248 -15.9654,63.28391 -10.64379,18.19153 -24.7716,32.31876 -42.38266,42.38204 -17.61097,10.0633 -36.76965,17.61086 -57.47686,22.64283 -20.7071,5.03207 -42.28559,7.54789 -64.73489,7.54789 h -0.003 c -25.15863,0 -49.83322,-2.80648 -74.02402,-8.41825 -24.19069,-5.61178 -47.22061,-14.12741 -69.08939,-25.54605 -21.86882,-11.41883 -39.57707,-27.48144 -53.12398,-48.18868 -13.54689,-20.70704 -20.3199,-44.60803 -20.31993,-71.70184 0,-22.83677 5.22522,-43.25347 15.67597,-61.25121 10.45077,-17.99786 23.70729,-32.41554 39.76981,-43.25314 16.06263,-10.83745 34.83545,-19.73995 56.31742,-26.70713 21.48202,-6.96711 42.2861,-11.80548 62.41269,-14.51488 20.12669,-2.70933 40.44687,-4.06381 60.96096,-4.06381 z"
         style="font-style:normal;font-variant:normal;font-weight:bold;font-stretch:normal;font-size:1182.98583984px;font-family:'Avenir Next';-inkscape-font-specification:'Avenir Next, Bold';font-variant-ligatures:normal;font-variant-caps:normal;font-variant-numeric:normal;font-feature-settings:normal;text-align:start;writing-mode:lr-tb;text-anchor:start;fill:#646464;fill-opacity:0.93333333;stroke-width:29.574646"
         id="path4650"
         inkscape:connector-curvature="0"
         sodipodi:nodetypes="cccsscsccccsccscccccsccccccccccsssssccccccccssccsccccsccccccccccccccscccsscccccccccc" />
    </g>
  </g>
  <g
     id="g4594"
     inkscape:groupmode="layer"
     inkscape:label="Layer 1" />
  <g
     inkscape:groupmode="layer"
     inkscape:label="Web Slicer"
     id="webslicer-layer" />
  <metadata
     id="metadata4571">
    <rdf:RDF>
      <cc:Work
         rdf:about="">
        <dc:title />
        <dc:format>image/svg+xml</dc:format>
        <dc:type
           rdf:resource="http://purl.org/dc/dcmitype/StillImage" />
      </cc:Work>
    </rdf:RDF>
  </metadata>
</svg>
